<?xml version="1.0" encoding="UTF-8"?><svg id="Layer_2" xmlns="http://www.w3.org/2000/svg" xmlns:xlink="http://www.w3.org/1999/xlink" viewBox="0 0 132.46 107.65"><defs><style>.cls-1{fill:#60d3be;}.cls-2{clip-path:url(#clippath-2);}.cls-3{fill:#ffc190;}.cls-4{clip-path:url(#clippath-1);}.cls-5{opacity:.6;}.cls-6{fill:#5f82d6;}.cls-7{fill:#d7d9dd;}.cls-8{fill:#ffda89;}.cls-9{fill:#fad784;}.cls-10{fill:#dbab33;}.cls-11{clip-path:url(#clippath);}.cls-12{fill:none;}.cls-13{clip-path:url(#clippath-3);}.cls-14{fill:#f0c542;}.cls-15{fill:#fad77e;}.cls-16{fill:#2e3b57;}.cls-17{fill:#dae2f2;}</style><clipPath id="clippath"><rect class="cls-12" width="132.46" height="107.65"/></clipPath><clipPath id="clippath-1"><rect class="cls-12" y="0" width="132.46" height="107.65"/></clipPath><clipPath id="clippath-2"><rect class="cls-12" x="9.67" y="52.91" width="43.37" height="44.04"/></clipPath><clipPath id="clippath-3"><rect class="cls-12" x="17.45" y="12.84" width="32.79" height="32.79"/></clipPath></defs><g id="Layer_2-2"><g id="Group_530"><g class="cls-11"><g id="Group_529"><g id="Group_528"><g class="cls-4"><g id="Group_527"><path id="Path_1777" class="cls-7" d="m42.74,105.97c-.06,0-1.5-.2-3.86-.69l.26-1.25c2.31.48,3.75.68,3.77.68l-.17,1.27Zm-7.65-1.57c-1.16-.29-2.42-.64-3.74-1.04l.37-1.23c1.3.39,2.54.73,3.69,1.02l-.31,1.24Zm-7.43-2.24c-1.25-.44-2.47-.9-3.63-1.38l.49-1.18c1.14.47,2.34.92,3.57,1.36l-.42,1.21Zm-7.18-2.96c-1.19-.57-2.35-1.17-3.45-1.79l.63-1.12c1.08.6,2.21,1.2,3.38,1.75l-.55,1.16Zm-6.77-3.83c-1.1-.74-2.16-1.52-3.14-2.32l.81-.99c.95.77,1.98,1.53,3.05,2.25l-.72,1.06Zm-6.04-4.95c-.92-.93-1.78-1.92-2.57-2.96l1.02-.77c.76,1,1.58,1.95,2.46,2.84l-.91.9Zm-4.7-6.26c-.63-1.15-1.16-2.35-1.6-3.59l1.21-.43c.41,1.17.92,2.31,1.52,3.4l-1.12.62Zm-2.59-7.4c-.23-1.29-.35-2.6-.38-3.91l1.28-.02c.02,1.24.14,2.48.35,3.71l-1.26.22Zm1.1-7.68l-1.28-.15c.16-1.3.39-2.58.7-3.85l1.25.3c-.3,1.22-.52,2.45-.67,3.7m1.74-7.33l-1.21-.42c.41-1.19.89-2.41,1.43-3.62l1.17.52c-.52,1.18-.99,2.37-1.39,3.52m3.05-6.95l-1.14-.6c.58-1.11,1.22-2.24,1.9-3.38l1.1.66c-.67,1.12-1.3,2.23-1.87,3.32m87.5-.09c-1.36-.25-2.65-.79-3.78-1.6l.75-1.04c.97.69,2.08,1.16,3.25,1.37l-.23,1.26Zm4.15-.44l-.55-1.16c1.02-.5,1.82-1.37,2.24-2.43l1.18.51c-.54,1.35-1.56,2.45-2.87,3.08m-10.37-4.53c-.26-.82-.39-1.68-.38-2.55,0-.52.04-1.04.12-1.55l1.27.19c-.07.45-.1.9-.11,1.36,0,.73.1,1.46.32,2.15l-1.22.39Zm-77.37-1.47l-1.07-.71c.69-1.04,1.43-2.1,2.22-3.17l1.03.76c-.77,1.06-1.5,2.1-2.19,3.13m91.4-1.06l-1.28-.04c0-.16,0-.31,0-.48,0-1.08-.1-2.16-.27-3.23l1.27-.19c.18,1.13.27,2.28.28,3.43,0,.18,0,.35,0,.52m-11.92-4.84l-1.16-.55c.58-1.2,1.28-2.33,2.09-3.38l1.02.78c-.76.98-1.41,2.04-1.95,3.15m-74.99-.27l-1.01-.79c.77-.99,1.59-1.99,2.44-3l.98.82c-.84,1-1.65,1.99-2.41,2.97m84.52-2.24c-.44-1.16-1-2.26-1.67-3.31l1.08-.68c.72,1.12,1.32,2.31,1.79,3.55l-1.2.44Zm-5.07-3.39l-.87-.94c.96-.89,1.99-1.72,3.07-2.46l.73,1.05c-1.03.71-2.01,1.49-2.92,2.35m-74.54-.23l-.96-.85c.83-.94,1.7-1.89,2.6-2.85l.94.87c-.89.96-1.75,1.9-2.58,2.83m75.72-2.72c-.77-.93-1.64-1.86-2.56-2.78l.9-.91c.96.95,1.85,1.91,2.65,2.87l-.99.82Zm4.97-1.32l-.58-1.14c1.17-.59,2.37-1.12,3.6-1.57l.44,1.2c-1.18.43-2.33.93-3.45,1.5m-75.48-1.55l-.91-.9c.92-.93,1.87-1.83,2.82-2.67l.85.96c-.93.82-1.86,1.7-2.76,2.62m82.53-1.03l-.3-1.25c1.27-.31,2.55-.54,3.85-.71l.17,1.27c-1.25.16-2.49.39-3.71.68m15.73-.42c-.23-.04-.47-.07-.7-.11l.18-1.27c.24.03.48.07.72.11l-.2,1.26Zm-4.47-.5c-1.3-.08-2.56-.1-3.78-.06l-.04-1.28c1.26-.04,2.56-.02,3.9.06l-.08,1.28Zm-28.66-.49c-.96-.8-1.97-1.58-3.01-2.32l.75-1.04c1.06.76,2.1,1.56,3.08,2.38l-.82.98Zm-59.44-2.6l-.78-1.01c1.04-.8,2.1-1.56,3.16-2.26l.71,1.07c-1.03.68-2.08,1.43-3.09,2.21m53.27-1.82c-1.08-.66-2.19-1.29-3.31-1.87l.59-1.14c1.14.59,2.28,1.24,3.38,1.91l-.67,1.09Zm-46.94-2.34l-.62-1.12c1.15-.63,2.32-1.22,3.49-1.73l.52,1.17c-1.13.5-2.28,1.07-3.39,1.68m40.19-1.16c-1.17-.51-2.36-.98-3.53-1.39l.43-1.21c1.21.43,2.43.91,3.62,1.43l-.51,1.17Zm-33.28-1.91l-.42-1.21c1.23-.42,2.49-.79,3.74-1.1l.3,1.24c-1.22.3-2.44.66-3.63,1.07m26.12-.61c-1.22-.33-2.46-.62-3.7-.86l.24-1.26c1.26.24,2.54.54,3.79.88l-.33,1.24Zm-18.77-1.2l-.19-1.27c1.28-.2,2.58-.34,3.88-.42l.08,1.28c-1.26.08-2.53.21-3.76.4m11.33-.22c-1.26-.14-2.54-.22-3.78-.25l.03-1.28c1.28.03,2.59.12,3.89.26l-.14,1.27Z"/><g id="Group_523" class="cls-5"><g id="Group_522"><g class="cls-2"><g id="Group_521"><path id="Path_1778" class="cls-17" d="m20.55,61.07c-7.36,5.79-8.62,16.45-2.83,23.8s16.45,8.62,23.8,2.83c7.36-5.79,8.62-16.45,2.83-23.8,0,0,0,0,0,0-5.79-7.35-16.45-8.62-23.8-2.83m16,20.32c-3.87,3.05-9.47,2.38-12.52-1.49s-2.38-9.47,1.49-12.52c3.87-3.05,9.47-2.38,12.52,1.49,0,0,0,0,0,0,3.04,3.87,2.38,9.47-1.49,12.52"/><path id="Path_1779" class="cls-17" d="m26.08,61.72l-6,4.73s-4.8-3.98-4.58-5.81c.23-1.9,4.14-5.15,6-4.73,1.8.41,4.58,5.81,4.58,5.81"/><path id="Path_1780" class="cls-17" d="m41.73,82.75l-6,4.73s2.74,5.6,4.58,5.82c1.89.22,5.98-2.82,6-4.73.02-1.85-4.58-5.82-4.58-5.82"/><path id="Path_1781" class="cls-17" d="m18.11,69.25l.07,7.64s-6.08,1.36-7.4.06c-1.36-1.34-1.54-6.42-.07-7.64,1.43-1.18,7.4-.06,7.4-.06"/><path id="Path_1782" class="cls-17" d="m19.28,80.05l3.68,6.69s-4.71,4.08-6.48,3.57c-1.83-.53-4.41-4.93-3.68-6.7.7-1.71,6.49-3.57,6.49-3.57"/><path id="Path_1783" class="cls-17" d="m43.89,69.72l-4.48-6.19s4.17-4.63,6-4.34c1.88.3,4.98,4.35,4.48,6.19-.48,1.79-6,4.34-6,4.34"/><path id="Path_1784" class="cls-17" d="m28.81,60.52l7.41,1.86s2.75-5.59,1.8-7.18c-.98-1.64-5.89-3.01-7.41-1.86-1.48,1.12-1.8,7.18-1.8,7.18"/><path id="Path_1785" class="cls-17" d="m32.49,89.35l-7.41-1.85s-2.75,5.59-1.8,7.18c.98,1.64,5.88,3.01,7.41,1.86,1.48-1.11,1.8-7.18,1.8-7.18"/><path id="Path_1786" class="cls-17" d="m44.61,80.1l-.07-7.64s6.08-1.36,7.4-.06c1.36,1.34,1.54,6.42.06,7.64-1.43,1.18-7.4.07-7.4.07"/></g></g></g></g><path id="Path_1787" class="cls-17" d="m61.66,10.05c-7.36,5.79-8.62,16.45-2.83,23.8,5.79,7.36,16.45,8.62,23.8,2.83,7.36-5.79,8.62-16.45,2.83-23.8,0,0,0,0,0,0-5.79-7.35-16.45-8.62-23.8-2.83m16,20.32c-3.87,3.04-9.47,2.38-12.52-1.49-3.04-3.87-2.38-9.47,1.49-12.52,3.87-3.04,9.47-2.38,12.52,1.49,3.05,3.87,2.38,9.47-1.49,12.52"/><path id="Path_1788" class="cls-17" d="m67.19,10.71l-6,4.73s-4.8-3.98-4.58-5.81c.23-1.9,4.14-5.15,6-4.72,1.8.41,4.58,5.81,4.58,5.81"/><path id="Path_1789" class="cls-17" d="m82.83,31.73l-6,4.73s2.74,5.6,4.58,5.81c1.89.22,5.98-2.82,6-4.73.02-1.85-4.58-5.82-4.58-5.82"/><path id="Path_1790" class="cls-17" d="m59.21,18.23l.07,7.64s-6.08,1.36-7.4.06c-1.36-1.34-1.54-6.43-.07-7.64,1.43-1.17,7.4-.06,7.4-.06"/><path id="Path_1791" class="cls-17" d="m60.39,29.03l3.68,6.69s-4.71,4.08-6.48,3.57c-1.83-.53-4.41-4.93-3.68-6.7.7-1.71,6.49-3.57,6.49-3.57"/><path id="Path_1792" class="cls-17" d="m85,18.7l-4.48-6.19s4.17-4.63,6-4.34c1.88.3,4.98,4.35,4.48,6.19-.48,1.78-6,4.34-6,4.34"/><path id="Path_1793" class="cls-17" d="m69.92,9.5l7.41,1.86s2.75-5.59,1.8-7.18c-.98-1.64-5.88-3.01-7.41-1.86-1.48,1.11-1.8,7.18-1.8,7.18"/><path id="Path_1794" class="cls-17" d="m73.6,38.33l-7.41-1.86s-2.75,5.59-1.8,7.18c.98,1.64,5.88,3.01,7.41,1.86,1.48-1.11,1.8-7.18,1.8-7.18"/><path id="Path_1795" class="cls-17" d="m85.71,29.09l-.07-7.64s6.08-1.36,7.4-.07c1.36,1.34,1.54,6.43.07,7.64-1.43,1.18-7.4.07-7.4.07"/><g id="Group_526" class="cls-5"><g id="Group_525"><g class="cls-13"><g id="Group_524"><path id="Path_1796" class="cls-8" d="m30.44,16.51c-6.98,1.84-11.14,9-9.3,15.98,1.84,6.98,9,11.14,15.98,9.3,6.98-1.84,11.14-9,9.3-15.98,0,0,0,0,0,0-1.84-6.98-9-11.14-15.98-9.3m5.09,19.28c-3.67.97-7.43-1.22-8.4-4.89s1.22-7.43,4.89-8.4,7.43,1.22,8.4,4.89c0,0,0,0,0,0,.97,3.67-1.22,7.43-4.89,8.4"/><path id="Path_1797" class="cls-8" d="m34.15,18.67l-5.7,1.5s-2.17-4.28-1.45-5.51c.74-1.27,4.51-2.38,5.69-1.5,1.15.84,1.46,5.52,1.46,5.52"/><path id="Path_1798" class="cls-8" d="m38.78,38.35l-5.7,1.5s.22,4.8,1.46,5.52c1.27.74,5.09-.16,5.7-1.5.58-1.3-1.46-5.52-1.46-5.52"/><path id="Path_1799" class="cls-8" d="m26.2,21.55l-2.29,5.43s-4.72-.9-5.26-2.22c-.55-1.36.88-5.02,2.3-5.43,1.37-.39,5.26,2.22,5.26,2.22"/><path id="Path_1800" class="cls-8" d="m23.72,29.55l.56,5.86s-4.58,1.45-5.68.54c-1.14-.94-1.61-4.84-.56-5.87,1.02-1,5.68-.54,5.68-.54"/><path id="Path_1801" class="cls-8" d="m44.3,29.79l-1.27-5.75s4.37-2,5.57-1.23c1.24.79,2.19,4.6,1.27,5.75-.89,1.11-5.57,1.23-5.57,1.23"/><path id="Path_1802" class="cls-8" d="m36.45,18.65l4.67,3.59s3.66-3.11,3.47-4.53c-.19-1.46-3.24-3.93-4.67-3.59-1.39.33-3.48,4.53-3.48,4.53"/><path id="Path_1803" class="cls-8" d="m30.21,40.18l-4.67-3.59s-3.66,3.11-3.47,4.53c.19,1.46,3.24,3.93,4.67,3.59,1.39-.34,3.47-4.53,3.47-4.53"/><path id="Path_1804" class="cls-8" d="m41.63,37.36l2.3-5.43s4.72.9,5.26,2.22c.55,1.36-.88,5.02-2.3,5.43-1.37.4-5.26-2.22-5.26-2.22"/></g></g></g></g><path id="Path_1805" class="cls-14" d="m119.48,29.01l-2.98-.88,3.41-3.52,12.55,4.33-12.98.07Z"/><path id="Path_1806" class="cls-15" d="m119.22,33.89l13.24-4.94-12.89-1.69-.35,6.63Z"/><path id="Path_1807" class="cls-9" d="m132.46,28.94l-12.69-3.42.96-6.03,11.74,9.45Z"/><path id="Path_1808" class="cls-10" d="m116.5,28.13l3.07-.88-.09,1.76-2.98-.88Z"/><path id="Path_1809" class="cls-14" d="m71.71,20.4l-1.8-.53,2.06-2.13,7.57,2.61-7.83.04Z"/><path id="Path_1810" class="cls-15" d="m71.56,23.33l7.99-2.99-7.77-1.01-.21,4Z"/><path id="Path_1811" class="cls-9" d="m79.54,20.35l-7.65-2.06.58-3.64,7.07,5.7Z"/><path id="Path_1812" class="cls-10" d="m69.91,19.87l1.85-.53-.06,1.06-1.8-.53Z"/><path id="Path_1813" class="cls-6" d="m82.46,34.09c0,4.01-3.25,7.27-7.27,7.27-4.01,0-7.27-3.25-7.27-7.27h0v-6.94c0-4.01,3.25-7.27,7.27-7.27s7.27,3.25,7.27,7.27h0v6.94Z"/><path id="Path_1814" class="cls-3" d="m43.72,36.94c.61,14.21,8.6,25.48,17.82,25.15s16.19-12.1,15.58-26.31c-.63-14.22-8.61-25.49-17.82-25.16s-16.2,12.1-15.58,26.32"/><path id="Path_1815" class="cls-16" d="m74.92,23.33s-8.9,1.45-24.23-4.34c0,0-11.77,11.25-4.03,28.87,0,0-11.28-10.21-5.73-28.03C46.49,2.01,58.02,5.35,64.27,3.15s13.29,1.73,17.89-2.44c4.54-4.11,6.13,11.86-7.23,22.62"/><path id="Path_1816" class="cls-3" d="m40.64,36.82c.1,3.89,1.85,6.97,3.91,6.87s3.62-3.35,3.51-7.24-1.87-6.97-3.91-6.87-3.62,3.34-3.51,7.24"/><path id="Path_1817" class="cls-1" d="m59.3,65.08c-19.46,0-35.8,18.11-40.36,42.57h80.72c-4.56-24.46-20.9-42.57-40.36-42.57"/><path id="Path_1818" class="cls-3" d="m66.38,71.79l-5.96,7.08-5.96-7.08v-13.42h11.92v13.42Z"/><path id="Path_1819" class="cls-6" d="m48.27,35.07c.05,4.01-3.17,7.31-7.18,7.35-4.01.05-7.31-3.17-7.35-7.18,0-.06,0-.11,0-.17v-6.94c-.05-4.01,3.17-7.31,7.18-7.35,4.01-.05,7.31,3.17,7.35,7.18,0,.06,0,.11,0,.17v6.94Z"/><path id="Path_1820" class="cls-6" d="m62.51,2.84h-11.41c-7,0-12.68,5.68-12.68,12.68v7.82h3.63v-6.52c0-5.62,4.55-10.17,10.17-10.17h9.15c5.62,0,10.17,4.55,10.17,10.17v6.52h3.63v-7.82c0-7-5.68-12.68-12.68-12.68"/><path id="Path_1821" class="cls-16" d="m54.46,11.91s4.34-8.26,10.12-8.85,12.29.7,14.93-.82,6.48-4.56,5.91.82c-.57,5.38,1.56,17.53-9.78,23.61,0,0-21.04-.38-24.94-7.67l3.76-7.08Z"/><path id="Path_1822" class="cls-6" d="m71.27,50.71c0,1.41-1.14,2.55-2.56,2.56h-2.56c-1.41,0-2.56-1.15-2.55-2.56,0-1.41,1.14-2.55,2.55-2.55h2.56c1.41,0,2.55,1.15,2.55,2.56"/><path id="Path_1823" class="cls-6" d="m72.37,52.03c-1.7-.01-3.39-.12-5.08-.31l.29-2.55c4.57.51,9.27.25,9.87-.55,1.38-4.12-.02-9.17-.04-9.23l2.46-.7c.07.24,1.63,5.87-.02,10.79-.68,2.01-4.05,2.55-7.49,2.55"/></g></g></g></g></g></g></g></svg>