<?xml version="1.0" encoding="utf-8"?>
<!-- Generator: Adobe Illustrator 27.5.0, SVG Export Plug-In . SVG Version: 6.00 Build 0)  -->
<svg version="1.1" id="Layer_1" xmlns="http://www.w3.org/2000/svg" xmlns:xlink="http://www.w3.org/1999/xlink" x="0px" y="0px"
	 viewBox="0 0 87.8 61.4" style="enable-background:new 0 0 87.8 61.4;" xml:space="preserve">
<style type="text/css">
	.st0{fill:#F6C092;}
	.st1{fill:#DBA47B;}
	.st2{fill:#494949;}
	.st3{fill:#F4F4F4;}
	.st4{fill:#CECECE;}
	.st5{fill:#535353;}
	.st6{fill:#CC8F62;}
	.st7{fill:#AA7149;}
	.st8{fill:#114677;}
	.st9{fill:#06263D;}
</style>
<g>
	<g>
		<polygon class="st0" points="57.2,42.2 76.2,29.8 65.4,13.2 55.9,19.4 46.2,22.6 46.4,25.6 		"/>
	</g>
	<g>
		<polygon class="st1" points="62.9,17.4 68.2,32.3 70.3,32.5 71.9,31.2 		"/>
	</g>
	<g>
		<rect x="67.1" y="30.2" transform="matrix(0.8368 -0.5476 0.5476 0.8368 -5.4641 44.385)" class="st1" width="9.3" height="2.3"/>
	</g>
	<g>
		<path class="st2" d="M57.2,42.6c-0.1,0-0.3-0.1-0.4-0.2L46,25.9c0-0.1-0.1-0.1-0.1-0.2l-0.2-3c0-0.2,0.1-0.4,0.3-0.5l9.7-3.2
			l9.4-6.2c0.2-0.1,0.5-0.1,0.6,0.1l10.8,16.6c0.1,0.1,0.1,0.2,0.1,0.3c0,0.1-0.1,0.2-0.2,0.3l-19,12.4
			C57.4,42.6,57.3,42.6,57.2,42.6z M46.8,25.5l10.5,16.1l18.3-11.9L65.3,13.8l-9.1,6c0,0-0.1,0-0.1,0.1l-9.4,3.1L46.8,25.5z"/>
	</g>
	<g>
		<rect x="66.2" y="9.2" transform="matrix(0.8368 -0.5476 0.5476 0.8368 0.4073 42.7616)" class="st3" width="11.5" height="23"/>
	</g>
	<g>
		
			<rect x="70.5" y="23.5" transform="matrix(0.8368 -0.5476 0.5476 0.8368 -2.4659 46.1613)" class="st4" width="11.5" height="7.5"/>
	</g>
	<g>
		<path class="st0" d="M51.1,49.1l14.1-9.2c2.7-1.8,3.4-5.4,1.7-8l-6.3-9.6l-9.5,6.2l-9.7,3.2l0.2,3L51.1,49.1z"/>
	</g>
	<g>
		<path class="st1" d="M48.5,48.8l17.1-11.2c1.1-0.7,1.8-1.7,2.2-2.7c0,1.9-0.9,3.8-2.6,5l-13.5,8.8L48.5,48.8z"/>
	</g>
	<g>
		<path class="st2" d="M51.1,49.5c-0.1,0-0.3-0.1-0.4-0.2c-0.1-0.2-0.1-0.5,0.1-0.6l14.1-9.2c1.2-0.8,2-2,2.3-3.4
			c0.3-1.4,0-2.8-0.8-4c-0.1-0.2-0.1-0.5,0.1-0.6c0.2-0.1,0.5-0.1,0.6,0.1c0.9,1.4,1.2,3.1,0.9,4.7c-0.3,1.6-1.3,3-2.7,4l-14.1,9.2
			C51.2,49.5,51.1,49.5,51.1,49.5z"/>
	</g>
	<g>
		<path class="st2" d="M73.4,33.9C73.4,33.9,73.4,33.9,73.4,33.9c-0.2,0-0.3-0.1-0.4-0.2L60.4,14.4c-0.1-0.2-0.1-0.5,0.1-0.6
			l9.6-6.3c0.2-0.1,0.5-0.1,0.6,0.1L83.4,27c0.1,0.2,0.1,0.5-0.1,0.6l-9.6,6.3C73.6,33.9,73.5,33.9,73.4,33.9z M61.4,14.3l12.1,18.5
			l8.9-5.8L70.3,8.5L61.4,14.3z"/>
	</g>
	<g>
		
			<rect x="68.8" y="5.9" transform="matrix(0.8368 -0.5476 0.5476 0.8368 2.0548 44.1539)" class="st5" width="12.6" height="25.4"/>
	</g>
	<g>
		<path class="st2" d="M76.7,33.1C76.7,33.1,76.7,33.1,76.7,33.1c-0.2,0-0.3-0.1-0.4-0.2L62.5,11.7c-0.1-0.1-0.1-0.2-0.1-0.3
			c0-0.1,0.1-0.2,0.2-0.3l10.6-6.9c0.2-0.1,0.5-0.1,0.6,0.1l13.9,21.2c0.1,0.2,0.1,0.5-0.1,0.6L77,33.1
			C76.9,33.1,76.8,33.1,76.7,33.1z M63.5,11.6l13.4,20.5l9.8-6.4L73.3,5.2L63.5,11.6z"/>
	</g>
	<g>
		
			<rect x="73.8" y="22.7" transform="matrix(0.8368 -0.5476 0.5476 0.8368 -1.3032 48.1274)" class="st2" width="12.6" height="7.2"/>
	</g>
	<g>
		<path class="st6" d="M62.9,42.4L45.4,30.9c-1.7-1.1-2.1-3.3-1-5l0,0c1.1-1.7,3.3-2.1,5-1l17.6,11.5c1.7,1.1,2.1,3.3,1,5l0,0
			C66.8,43,64.6,43.5,62.9,42.4z"/>
	</g>
	<g>
		<path class="st7" d="M66.8,36.4l-1.6-1.1c1.5,1.1,1.9,3.3,0.9,4.9c-1.1,1.7-3.3,2.1-5,1L45.2,30.8c0.1,0,0.1,0.1,0.2,0.1
			l17.6,11.5c1.7,1.1,3.9,0.6,5-1C69,39.7,68.5,37.5,66.8,36.4z"/>
	</g>
	<g>
		<path class="st6" d="M41.8,37.2L60,49.1c1.7,1.1,3.9,0.6,5-1c1.1-1.7,0.6-3.9-1-5L43.2,29.5L41.8,37.2z"/>
	</g>
	<g>
		<path class="st1" d="M60.5,26.4c-7.3,8.7-12.7-1.8-12.7-1.8l5.6,8.6c1.1,1.7,0.6,3.9-1,5l0,0c-1.7,1.1-3.9,0.6-5-1l-7.5-11.5
			c-1.1-1.7-0.6-3.9,1-5l6-3.9c0.9-0.6,2.1-0.8,3.1-0.4l7.2,2.4L60.5,26.4z"/>
	</g>
	<g>
		<path class="st6" d="M46.2,57.3L30.2,46.9c-1.7-1.1-2.1-3.3-1-5l0,0c1.1-1.7,3.3-2.1,5-1l15.9,10.4c1.7,1.1,2.1,3.3,1,5l0,0
			C50.1,58,47.9,58.4,46.2,57.3z"/>
	</g>
	<g>
		<path class="st7" d="M50.1,51.3l-1.6-1.1c1.5,1.1,1.9,3.3,0.9,4.9c-1.1,1.7-3.3,2.1-5,1l-14.3-9.4c0.1,0,0.1,0.1,0.2,0.1
			l15.9,10.4c1.7,1.1,3.9,0.6,5-1C52.3,54.6,51.8,52.4,50.1,51.3z"/>
	</g>
	<g>
		<path class="st2" d="M64.9,43.4c-0.8,0-1.5-0.2-2.2-0.7c-0.2-0.1-0.3-0.4-0.1-0.6c0.1-0.2,0.4-0.3,0.6-0.1c1.5,1,3.4,0.5,4.4-0.9
			c1-1.5,0.5-3.4-0.9-4.4L49.1,25.3c-1.5-1-3.4-0.5-4.4,0.9c-0.1,0.2-0.4,0.3-0.6,0.1c-0.2-0.1-0.3-0.4-0.1-0.6
			c1.2-1.9,3.7-2.4,5.6-1.2L67.1,36c1.9,1.2,2.4,3.7,1.2,5.6C67.5,42.8,66.2,43.4,64.9,43.4z"/>
	</g>
	<g>
		<path class="st2" d="M48.3,58.4c-0.8,0-1.5-0.2-2.2-0.7L30.2,47.3c-0.9-0.6-1.5-1.5-1.7-2.6c-0.2-1.1,0-2.1,0.6-3
			c1.2-1.9,3.7-2.4,5.6-1.2l15.9,10.4c1.9,1.2,2.4,3.7,1.2,5.6C51,57.7,49.7,58.4,48.3,58.4z M32.4,40.7c-1,0-2,0.5-2.6,1.4
			c-0.5,0.7-0.6,1.5-0.4,2.4c0.2,0.8,0.7,1.5,1.4,2L46.6,57c1.5,1,3.4,0.5,4.4-0.9c1-1.5,0.5-3.4-0.9-4.4L34.1,41.2
			C33.6,40.9,33,40.7,32.4,40.7z"/>
	</g>
	<g>
		<polygon class="st6" points="29.8,42.3 10.8,29.9 21.6,13.3 31.1,19.5 40.9,22.7 40.6,25.8 		"/>
	</g>
	<g>
		<polygon class="st7" points="17.6,34.4 27,16.9 22,13.6 11.2,30.2 		"/>
	</g>
	<g>
		<path class="st2" d="M29.8,42.8c-0.1,0-0.2,0-0.2-0.1l-19-12.4c-0.2-0.1-0.3-0.4-0.1-0.6l10.8-16.6c0.1-0.1,0.2-0.2,0.3-0.2
			c0.1,0,0.2,0,0.3,0.1l9.4,6.2l9.7,3.2c0.2,0.1,0.3,0.3,0.3,0.5l-0.2,3c0,0.1,0,0.1-0.1,0.2L30.2,42.6C30.1,42.7,30,42.7,29.8,42.8
			C29.8,42.8,29.8,42.8,29.8,42.8z M11.4,29.8l18.3,11.9l10.5-16.1l0.2-2.6L31,20c0,0-0.1,0-0.1-0.1l-9.1-6L11.4,29.8z"/>
	</g>
	<g>
		
			<rect x="3.6" y="15.1" transform="matrix(0.5475 -0.8368 0.8368 0.5475 -10.6056 22.0583)" class="st3" width="23" height="11.5"/>
	</g>
	<g>
		
			<rect x="7.1" y="21.6" transform="matrix(0.5475 -0.8368 0.8368 0.5475 -17.9904 21.4383)" class="st4" width="7.5" height="11.5"/>
	</g>
	<g>
		<path class="st6" d="M35.6,50.4l-14.1-9.2c-2.7-1.8-3.4-5.4-1.7-8l6.3-9.6l9.5,6.2l9.7,3.2l-0.2,3L35.6,50.4z"/>
	</g>
	<g>
		<path class="st1" d="M38.1,50L21.1,38.9c-1.1-0.7-1.8-1.7-2.2-2.7c0,1.9,0.9,3.8,2.6,5L35,50L38.1,50z"/>
	</g>
	<g>
		<path class="st2" d="M35.6,50.8c-0.1,0-0.2,0-0.2-0.1l-14.1-9.2c-2.1-1.4-3.2-3.9-2.7-6.4c0-0.2,0.3-0.4,0.5-0.4
			c0.2,0,0.4,0.3,0.4,0.5c-0.4,2.1,0.5,4.3,2.3,5.5L35.8,50c0.2,0.1,0.3,0.4,0.1,0.6C35.9,50.7,35.7,50.8,35.6,50.8z"/>
	</g>
	<g>
		<path class="st6" d="M53.3,53.3l-15.1-9.9c-1.7-1.1-2.1-3.3-1-5l0,0c1.1-1.7,3.3-2.1,5-1l15.1,9.9c1.7,1.1,2.1,3.3,1,5l0,0
			C57.2,53.9,54.9,54.4,53.3,53.3z"/>
	</g>
	<g>
		<path class="st7" d="M57.2,47.3l-1.6-1.1c1.5,1.1,1.9,3.3,0.9,4.9c-1.1,1.7-3.3,2.1-5,1L38,43.3c0.1,0,0.1,0.1,0.2,0.1l15.1,9.9
			c1.7,1.1,3.9,0.6,5-1C59.3,50.6,58.9,48.4,57.2,47.3z"/>
	</g>
	<g>
		<path class="st7" d="M63.9,43.1L62.3,42c1.5,1.1,1.9,3.3,0.9,4.9c-1.1,1.7-3.3,2.1-5,1L41.8,37.2l0,0L60,49.1c1.7,1.1,3.9,0.6,5-1
			C66.1,46.4,65.6,44.2,63.9,43.1z"/>
	</g>
	<g>
		<path class="st2" d="M62,50.1c-0.8,0-1.5-0.2-2.2-0.7L41.6,37.6c-0.2-0.1-0.3-0.4-0.1-0.6c0.1-0.2,0.4-0.3,0.6-0.1l18.1,11.9
			c0.7,0.5,1.5,0.6,2.4,0.4c0.8-0.2,1.5-0.7,2-1.4c1-1.5,0.5-3.4-0.9-4.4L45.5,31.6c-0.2-0.1-0.3-0.4-0.1-0.6
			c0.1-0.2,0.4-0.3,0.6-0.1l18.1,11.9c1.9,1.2,2.4,3.7,1.2,5.6c-0.6,0.9-1.5,1.5-2.6,1.7C62.5,50.1,62.2,50.1,62,50.1z"/>
	</g>
	<g>
		<path class="st2" d="M55.2,54.3c-0.8,0-1.5-0.2-2.2-0.7L37.2,43.3c-0.2-0.1-0.3-0.4-0.1-0.6c0.1-0.2,0.4-0.3,0.6-0.1l15.8,10.3
			c0.7,0.5,1.5,0.6,2.4,0.4c0.8-0.2,1.5-0.7,2-1.4c1-1.5,0.5-3.4-0.9-4.4l-11.5-7.5c-0.2-0.1-0.3-0.4-0.1-0.6
			c0.1-0.2,0.4-0.3,0.6-0.1l11.5,7.5c0.9,0.6,1.5,1.5,1.7,2.6c0.2,1.1,0,2.1-0.6,3c-0.6,0.9-1.5,1.5-2.6,1.7
			C55.8,54.3,55.5,54.3,55.2,54.3z"/>
	</g>
	<g>
		<path class="st2" d="M13.6,34.1c-0.1,0-0.2,0-0.2-0.1l-9.6-6.3c-0.1-0.1-0.2-0.2-0.2-0.3c0-0.1,0-0.2,0.1-0.3L16.2,7.8
			c0.1-0.2,0.4-0.3,0.6-0.1l9.6,6.3c0.2,0.1,0.3,0.4,0.1,0.6L14,33.9C13.9,34,13.8,34,13.6,34.1C13.6,34.1,13.6,34.1,13.6,34.1z
			 M4.6,27.2l8.9,5.8l12.1-18.5l-8.9-5.8L4.6,27.2z"/>
	</g>
	<g>
		<path class="st6" d="M28,18l10.8-3.7c1-0.4,2.2-0.2,3.1,0.4l6,3.9c1.7,1.1,2.1,3.3,1,5l-7.5,11.5c-1.1,1.7-3.3,2.1-5,1h0
			c-1.7-1.1-2.1-3.3-1-5l5.6-8.6c0,0-5.2,9.6-14.3,3.6"/>
	</g>
	<g>
		<path class="st2" d="M48.5,24.8c-0.1,0-0.2,0-0.2-0.1c-0.2-0.1-0.3-0.4-0.1-0.6l0.5-0.7c1-1.5,0.5-3.4-0.9-4.4l-6-3.9
			c-0.8-0.5-1.8-0.7-2.7-0.3l-10.5,3.3c-0.2,0.1-0.5-0.1-0.6-0.3c-0.1-0.2,0.1-0.5,0.3-0.6l10.5-3.3c1.2-0.4,2.5-0.2,3.5,0.4l6,3.9
			c1.9,1.2,2.4,3.7,1.2,5.6l-0.5,0.7C48.8,24.7,48.6,24.8,48.5,24.8z"/>
	</g>
	<g>
		
			<rect x="-0.7" y="12.5" transform="matrix(0.5476 -0.8368 0.8368 0.5476 -10.3051 18.4794)" class="st8" width="25.4" height="12.6"/>
	</g>
	<g>
		<path class="st2" d="M10.3,33.3c-0.1,0-0.2,0-0.2-0.1l-10.6-6.9c-0.2-0.1-0.3-0.4-0.1-0.6L13.2,4.5c0.1-0.1,0.2-0.2,0.3-0.2
			c0.1,0,0.2,0,0.3,0.1l10.6,6.9c0.1,0.1,0.2,0.2,0.2,0.3c0,0.1,0,0.2-0.1,0.3L10.6,33.1C10.6,33.2,10.4,33.3,10.3,33.3z M0.3,25.8
			l9.8,6.4l13.4-20.5l-9.8-6.4L0.3,25.8z"/>
	</g>
	<g>
		<path class="st0" d="M26.6,48.5l15.9-10.4c1.7-1.1,2.1-3.3,1-5l0,0c-1.1-1.7-3.3-2.1-5-1L22.7,42.5c-1.7,1.1-2.1,3.3-1,5l0,0
			C22.7,49.1,24.9,49.6,26.6,48.5z"/>
	</g>
	<g>
		<path class="st1" d="M25.7,47.1l15.9-10.4c1.4-0.9,2-2.7,1.4-4.3c0.2,0.2,0.4,0.4,0.5,0.6v0c1.1,1.7,0.6,3.9-1,5L26.6,48.5
			c-1.7,1.1-3.9,0.6-5-1h0c-0.2-0.2-0.3-0.5-0.4-0.7C22.4,47.9,24.3,48.1,25.7,47.1z"/>
	</g>
	<g>
		<path class="st2" d="M24.6,49.5c-1.3,0-2.6-0.6-3.4-1.8c-0.6-0.9-0.8-2-0.6-3c0.2-1.1,0.8-2,1.7-2.6l15.9-10.4
			c1.9-1.2,4.4-0.7,5.6,1.2c0.6,0.9,0.8,2,0.6,3c-0.2,1.1-0.8,2-1.7,2.6L26.8,48.9l0,0C26.2,49.3,25.4,49.5,24.6,49.5z M40.6,31.9
			c-0.6,0-1.2,0.2-1.7,0.5L22.9,42.9c-1.5,1-1.9,2.9-0.9,4.4c1,1.5,2.9,1.9,4.4,0.9l15.9-10.4c0.7-0.5,1.2-1.2,1.4-2
			c0.2-0.8,0-1.7-0.4-2.4c-0.5-0.7-1.2-1.2-2-1.4C41,31.9,40.8,31.9,40.6,31.9z M26.6,48.5L26.6,48.5L26.6,48.5z"/>
	</g>
	<g>
		<g>
			<path class="st0" d="M21.5,43.2l13.6-8.9c1.7-1.1,2.1-3.3,1-5l0,0c-1.1-1.7-3.3-2.1-5-1l-13.6,8.9c-1.7,1.1-2.1,3.3-1,5l0,0
				C17.6,43.9,19.9,44.3,21.5,43.2z"/>
		</g>
		<g>
			<path class="st1" d="M20.6,41.9l13.6-8.9c1.4-0.9,2-2.7,1.4-4.3c0.2,0.2,0.4,0.4,0.5,0.6h0c1.1,1.7,0.6,3.9-1,5l-13.6,8.9
				c-1.7,1.1-3.9,0.6-5-1l0,0c-0.2-0.2-0.3-0.5-0.4-0.7C17.4,42.6,19.2,42.8,20.6,41.9z"/>
		</g>
		<g>
			<path class="st2" d="M19.6,44.3c-1.3,0-2.6-0.6-3.4-1.8c-0.6-0.9-0.8-2-0.6-3c0.2-1.1,0.8-2,1.7-2.6L31,27.9
				c1.9-1.2,4.4-0.7,5.6,1.2c1.2,1.9,0.7,4.4-1.2,5.6l-13.6,8.9c0,0,0,0,0,0C21.1,44,20.3,44.3,19.6,44.3z M33.2,28.1
				c-0.6,0-1.2,0.2-1.7,0.5l-13.6,8.9c-0.7,0.5-1.2,1.2-1.4,2c-0.2,0.8,0,1.7,0.4,2.4c0.5,0.7,1.2,1.2,2,1.4c0.8,0.2,1.7,0,2.4-0.4
				l13.6-8.9c1.5-1,1.9-2.9,0.9-4.4C35.2,28.6,34.2,28.1,33.2,28.1z M21.5,43.2L21.5,43.2L21.5,43.2z"/>
		</g>
	</g>
	<g>
		<g>
			<path class="st0" d="M33.2,52.8l13.6-8.9c1.7-1.1,2.1-3.3,1-5l0,0c-1.1-1.7-3.3-2.1-5-1l-13.6,8.9c-1.7,1.1-2.1,3.3-1,5l0,0
				C29.3,53.4,31.5,53.9,33.2,52.8z"/>
		</g>
		<g>
			<path class="st1" d="M32.3,51.5L46,42.5c1.4-0.9,2-2.7,1.4-4.3c0.2,0.2,0.4,0.4,0.5,0.6v0c1.1,1.7,0.6,3.9-1,5l-13.6,8.9
				c-1.7,1.1-3.9,0.6-5-1v0c-0.2-0.2-0.3-0.5-0.4-0.7C29,52.2,30.9,52.4,32.3,51.5z"/>
		</g>
		<g>
			<path class="st2" d="M31.2,53.9c-1.3,0-2.6-0.6-3.4-1.8c-0.6-0.9-0.8-2-0.6-3c0.2-1.1,0.8-2,1.7-2.6l13.6-8.9
				c1.9-1.2,4.4-0.7,5.6,1.2c0.6,0.9,0.8,2,0.6,3c-0.2,1.1-0.8,2-1.7,2.6l-13.6,8.9c0,0,0,0,0,0C32.8,53.6,32,53.9,31.2,53.9z
				 M44.9,37.7c-0.6,0-1.2,0.2-1.7,0.5l-13.6,8.9c-0.7,0.5-1.2,1.2-1.4,2c-0.2,0.8,0,1.7,0.4,2.4c0.5,0.7,1.2,1.2,2,1.4
				c0.8,0.2,1.7,0,2.4-0.4l13.6-8.9c0.7-0.5,1.2-1.2,1.4-2c0.2-0.8,0-1.7-0.4-2.4c-0.5-0.7-1.2-1.2-2-1.4
				C45.3,37.7,45.1,37.7,44.9,37.7z M33.2,52.8L33.2,52.8L33.2,52.8z"/>
		</g>
	</g>
	<g>
		<g>
			<path class="st0" d="M39.9,57.1l10.8-7c1.7-1.1,2.1-3.3,1-5l0,0c-1.1-1.7-3.3-2.1-5-1l-10.8,7c-1.7,1.1-2.1,3.3-1,5l0,0
				C36,57.8,38.3,58.2,39.9,57.1z"/>
		</g>
		<g>
			<path class="st1" d="M39,55.8l10.8-7c1.4-0.9,2-2.7,1.4-4.3c0.2,0.2,0.4,0.4,0.5,0.6l0,0c1.1,1.7,0.6,3.9-1,5l-10.8,7
				c-1.7,1.1-3.9,0.6-5-1v0c-0.2-0.2-0.3-0.5-0.4-0.7C35.8,56.5,37.6,56.7,39,55.8z"/>
		</g>
		<g>
			<path class="st2" d="M38,58.2c-0.3,0-0.6,0-0.8-0.1c-1.1-0.2-2-0.8-2.6-1.7c-0.6-0.9-0.8-2-0.6-3c0.2-1.1,0.8-2,1.7-2.6l10.8-7
				c0.9-0.6,2-0.8,3-0.6c1.1,0.2,2,0.8,2.6,1.7c0.6,0.9,0.8,2,0.6,3c-0.2,1.1-0.8,2-1.7,2.6l-10.8,7C39.5,57.9,38.8,58.2,38,58.2z
				 M48.7,44c-0.6,0-1.2,0.2-1.7,0.5l-10.8,7c-0.7,0.5-1.2,1.2-1.4,2c-0.2,0.8,0,1.7,0.4,2.4c0.5,0.7,1.2,1.2,2,1.4
				c0.8,0.2,1.7,0,2.4-0.4c0,0,0,0,0,0l10.8-7c0.7-0.5,1.2-1.2,1.4-2c0.2-0.8,0-1.7-0.4-2.4c-0.5-0.7-1.2-1.2-2-1.4
				C49.2,44,48.9,44,48.7,44z"/>
		</g>
	</g>
	<g>
		
			<rect x="3.4" y="20.1" transform="matrix(0.5476 -0.8368 0.8368 0.5476 -18.9363 17.7548)" class="st9" width="7.2" height="12.6"/>
	</g>
	<g>
		<path class="st0" d="M59,17.9l-10.8-3.7c-1-0.4-2.2-0.2-3.1,0.4l-6,3.9c-1.7,1.1-2.1,3.3-1,5L45.6,35c1.1,1.7,3.3,2.1,5,1h0
			c1.7-1.1,2.1-3.3,1-5L46,22.5c0,0,5.2,9.6,14.3,3.6"/>
	</g>
	<g>
		<path class="st2" d="M48.6,37.1c-0.3,0-0.6,0-0.8-0.1c-1.1-0.2-2-0.8-2.6-1.7l-7.5-11.5c-0.6-0.9-0.8-2-0.6-3
			c0.2-1.1,0.8-2,1.7-2.6l6-3.9c1-0.7,2.3-0.8,3.5-0.4l10.8,3.7c0.2,0.1,0.4,0.3,0.3,0.6c-0.1,0.2-0.3,0.4-0.6,0.3l-10.8-3.7
			c-0.9-0.3-1.9-0.2-2.7,0.3l-6,3.9c-1.5,1-1.9,2.9-0.9,4.4L46,34.8c0.5,0.7,1.2,1.2,2,1.4c0.8,0.2,1.7,0,2.4-0.4
			c1.5-1,1.9-2.9,0.9-4.4l-4.9-7.5c-0.5-0.6-0.7-1.1-0.7-1.1c-0.1-0.2,0-0.5,0.2-0.6c0.2-0.1,0.5-0.1,0.6,0.1l0.6,1
			c0.9,1.3,2.9,3.5,5.7,4.2c2.3,0.6,4.8,0,7.4-1.6c0.2-0.1,0.5-0.1,0.6,0.1c0.1,0.2,0.1,0.5-0.1,0.6c-2.8,1.8-5.5,2.4-8.1,1.8
			c-1.2-0.3-2.2-0.8-3.1-1.4l2.6,4c1.2,1.9,0.7,4.4-1.2,5.6C50.2,36.9,49.4,37.1,48.6,37.1z"/>
	</g>
</g>
</svg>
