<?xml version="1.0" encoding="UTF-8"?><svg id="Layer_2" xmlns="http://www.w3.org/2000/svg" xmlns:xlink="http://www.w3.org/1999/xlink" viewBox="0 0 78.77 123.65"><defs><style>.cls-1{fill:#fff;}.cls-2{clip-path:url(#clippath-2);}.cls-3{clip-path:url(#clippath-6);}.cls-4{opacity:.7;}.cls-5{clip-path:url(#clippath-7);}.cls-6{clip-path:url(#clippath-1);}.cls-7{clip-path:url(#clippath-4);}.cls-8{clip-path:url(#clippath);}.cls-9{fill:#407bff;}.cls-10{fill:none;}.cls-11{clip-path:url(#clippath-3);}.cls-12{clip-path:url(#clippath-8);}.cls-13{opacity:.2;}.cls-14{clip-path:url(#clippath-5);}.cls-15{fill:#263238;}</style><clipPath id="clippath"><rect class="cls-10" width="78.76" height="123.65"/></clipPath><clipPath id="clippath-1"><rect class="cls-10" width="78.76" height="123.65"/></clipPath><clipPath id="clippath-2"><rect class="cls-10" x="5.76" y="63.59" width="42.65" height="53.4"/></clipPath><clipPath id="clippath-3"><rect class="cls-10" x="27.23" y="66.77" width="23.61" height="43.28"/></clipPath><clipPath id="clippath-4"><rect class="cls-10" width="78.76" height="123.65"/></clipPath><clipPath id="clippath-5"><rect class="cls-10" x="30.35" y="63.59" width="42.65" height="53.4"/></clipPath><clipPath id="clippath-6"><rect class="cls-10" width="78.76" height="123.65"/></clipPath><clipPath id="clippath-7"><rect class="cls-10" x="5.47" y="5.43" width="67.82" height="67.82"/></clipPath><clipPath id="clippath-8"><rect class="cls-10" x="23.59" y="21.45" width="31.59" height="35.75"/></clipPath></defs><g id="Layer_2-2"><g id="Group_553"><g class="cls-8"><g id="Group_552"><path id="Path_1824" class="cls-15" d="m1.31,111.86l19.8-6.44,10.07,18.23,5.36-13.6,14.28-36.17.11-.28-.76-.29-16.56-6.54-12.54-4.95L1.31,111.86Z"/><g id="Group_538"><g class="cls-6"><g id="Group_537"><g id="Group_533" class="cls-13"><g id="Group_532"><g class="cls-2"><g id="Group_531"><path id="Path_1825" class="cls-1" d="m31.32,116.99l-8.61-15.59-16.94,5.51,17.1-43.32,25.55,10.09-17.1,43.31Zm-8.3-16.39l8.2,14.84,16.34-41.39-24.32-9.6L6.9,105.84l16.12-5.24Z"/></g></g></g></g><g id="Group_536" class="cls-13"><g id="Group_535"><g class="cls-11"><g id="Group_534"><path id="Path_1826" d="m50.83,73.88l-14.28,36.17c-5.34-12.63-8.49-26.07-9.33-39.76l6.4-3.52,16.56,6.54.65.57Z"/></g></g></g></g></g></g></g><path id="Path_1827" class="cls-15" d="m27.83,73.6l19.76,50.05,10.07-18.22,19.8,6.43-19.76-50.05-29.86,11.79Z"/><g id="Group_543"><g class="cls-7"><g id="Group_542"><g id="Group_541" class="cls-13"><g id="Group_540"><g class="cls-14"><g id="Group_539"><path id="Path_1828" class="cls-1" d="m30.35,73.67l25.55-10.09,17.1,43.32-16.94-5.51-8.61,15.59-17.1-43.31Zm41.52,32.16l-16.34-41.39-24.32,9.6,16.34,41.39,8.2-14.84,16.12,5.24Z"/></g></g></g></g></g></g></g><path id="Path_1829" class="cls-9" d="m42.92,0l-3.53,2.76-3.53-2.76-2.99,3.35-3.97-2.09-2.34,3.83-4.28-1.34-1.62,4.18-4.45-.56-.85,4.4-4.48.24-.04,4.49-4.36,1.04.76,4.42-4.11,1.8,1.53,4.22-3.72,2.51,2.26,3.87-3.21,3.13,2.92,3.41-2.6,3.65,3.48,2.83-1.91,4.06,3.93,2.17-1.15,4.33,4.25,1.43-.36,4.47,4.44.65.45,4.46,4.48-.16,1.24,4.31,4.38-.95,1.98,4.02,4.14-1.72,2.67,3.6,3.77-2.43,3.27,3.07,3.27-3.07,3.77,2.43,2.67-3.6,4.14,1.72,1.98-4.02,4.38.95,1.24-4.31,4.48.16.45-4.46,4.44-.65-.36-4.47,4.26-1.42-1.15-4.33,3.93-2.17-1.9-4.06,3.48-2.83-2.6-3.65,2.92-3.41-3.21-3.13,2.26-3.87-3.72-2.51,1.53-4.22-4.11-1.8.76-4.42-4.36-1.04-.04-4.49-4.48-.25-.84-4.4-4.46.55-1.61-4.18-4.28,1.34-2.34-3.83-3.97,2.09-2.98-3.35Z"/><g id="Group_551"><g class="cls-3"><g id="Group_550"><g id="Group_546" class="cls-13"><g id="Group_545"><g class="cls-5"><g id="Group_544"><path id="Path_1830" d="m73.29,39.34c0,18.73-15.18,33.91-33.91,33.91S5.47,58.07,5.47,39.34c0-18.73,15.18-33.91,33.91-33.91,0,0,0,0,0,0,18.73,0,33.91,15.18,33.91,33.91"/></g></g></g></g><path id="Path_1831" class="cls-9" d="m23.59,40.62l8-.7s1.47-5.76.56-18.17c1.36-.27,2.75-.34,4.13-.21,1.37.3,2.81,14.09,2.81,14.09,0,0,14.35-1.98,15.17-1.42.52.36.79,2.49.92,3.99.07.88-.49,1.69-1.35,1.92l-.49.13.27,13.81c.02,1.06-.79,1.96-1.85,2.05l-13.44,1.07c-1.33.11-2.66-.19-3.82-.86l-1.53-.89-8.25,1.18-1.13-15.99Z"/><g id="Group_549" class="cls-4"><g id="Group_548"><g class="cls-12"><g id="Group_547"><path id="Path_1832" class="cls-1" d="m23.59,40.62l8-.7s1.47-5.76.56-18.17c1.36-.27,2.75-.34,4.13-.21,1.37.3,2.81,14.09,2.81,14.09,0,0,14.35-1.98,15.17-1.42.52.36.79,2.49.92,3.99.07.88-.49,1.69-1.35,1.92l-.49.13.27,13.81c.02,1.06-.79,1.96-1.85,2.05l-13.44,1.07c-1.33.11-2.66-.19-3.82-.86l-1.53-.89-8.25,1.18-1.13-15.99Z"/></g></g></g></g></g></g></g></g></g></g></g></svg>